<?xml version="1.0" encoding="utf-8"?>
<!-- Generator: Adobe Illustrator 19.2.1, SVG Export Plug-In . SVG Version: 6.00 Build 0)  -->
<svg version="1.1" id="GLYPHS" xmlns="http://www.w3.org/2000/svg" xmlns:xlink="http://www.w3.org/1999/xlink" x="0px" y="0px"
	 width="14px" height="44px" viewBox="0 0 14 44" style="enable-background:new 0 0 14 44;" xml:space="preserve">
<g id="MSP_Bag_Empty_2_">
	<g id="MSP_Bag_Empty">
		<path style="fill:#FFFFFF;" d="M1.5,16C0.67,16,0,16.67,0,17.5v11C0,29.33,0.67,30,1.5,30h11c0.83,0,1.5-0.67,1.5-1.5v-11
			c0-0.83-0.67-1.5-1.5-1.5H1.5z M13,28.5c0,0.28-0.22,0.5-0.5,0.5h-11C1.22,29,1,28.78,1,28.5v-11C1,17.22,1.22,17,1.5,17h11
			c0.28,0,0.5,0.22,0.5,0.5V28.5z"/>
	</g>
	<g>
		<path style="fill:#FFFFFF;" d="M10.75,17h-7.5v-0.5C3.25,14.34,5.2,13,7,13s3.75,1.34,3.75,3.5V17z M4.3,16H9.7
			c-0.27-1.25-1.52-2-2.7-2S4.57,14.75,4.3,16z"/>
	</g>
</g>
</svg>
