<svg version="1.1" xmlns="http://www.w3.org/2000/svg" xmlns:xlink="http://www.w3.org/1999/xlink" x="0px" y="0px" width="74px" height="74px" viewBox="0 0 74 74" style="enable-background:new 0 0 74 74;" xml:space="preserve">
	<path style="fill:#888888;" d="M50.39,57c-0.07,0-0.14,0-0.22,0c-0.85-0.02-1.55-0.12-1.83-0.17c-3.33-0.52-10.27-2.65-19.38-11.02c-9.25-8.51-11.87-15.38-12.61-18.71c-0.09-0.3-1.02-3.6,0.62-6.21c1.55-2.43,3.2-3.1,4.77-3.57c0.63-0.19,1.05-0.28,1.47-0.3l0,0c1.71-0.09,2.62,1.08,2.95,1.53c0.72,0.93,4.69,6.78,5.11,7.45c0.48,0.77,1.39,2.21,0.43,4.28c-0.31,0.66-0.69,1.44-1.02,2.14l-0.54,1.13c-0.16,0.34-0.1,0.42-0.02,0.53c0.29,0.41,1.37,1.64,3.22,3.68l3.48,3.16c1.07,0.81,3.3,2.5,3.85,2.83c0.06,0.04,0.13,0.06,0.16,0.06c0,0,0.1-0.01,0.32-0.15l0.68-0.43c0.72-0.46,1.6-1.03,2.33-1.48c0.6-0.39,1.25-0.62,1.91-0.65c0.99-0.05,1.76,0.33,2.32,0.61c0.81,0.41,6.85,3.8,7.84,4.44c1.99,1.3,1.89,2.92,1.64,4.33c-0.27,1.52-0.75,3.3-3.02,5.16c-1,0.81-2.3,1.27-3.88,1.36l-0.12,0.01C50.74,56.99,50.59,57,50.39,57z M23.4,19c-0.03,0-0.06,0-0.09,0h0c-0.24,0.01-0.53,0.08-0.99,0.22c-1.35,0.41-2.48,0.87-3.66,2.73c-1.19,1.89-0.39,4.61-0.38,4.63c0.71,3.18,3.19,9.61,12.03,17.74c8.73,8.03,15.24,10.04,18.35,10.52l0.12,0.03c0.07,0.01,0.69,0.11,1.44,0.12c0.25,0.01,0.42,0,0.53-0.01l0.12-0.01c1.14-0.07,2.06-0.38,2.73-0.92c1.74-1.43,2.08-2.64,2.31-3.96c0.24-1.33,0.11-1.74-0.76-2.31c-0.9-0.58-6.94-3.97-7.61-4.31c-0.47-0.23-0.89-0.45-1.35-0.42c-0.31,0.02-0.62,0.13-0.94,0.34c-0.73,0.46-1.61,1.02-2.32,1.48l-0.69,0.44c-0.46,0.28-0.87,0.43-1.28,0.45c-0.42,0.02-0.84-0.08-1.26-0.32c-0.63-0.36-2.35-1.67-4.07-2.97l-0.39-0.3l-3.3-3.04c-1.4-1.53-2.99-3.29-3.43-3.92c-0.55-0.76-0.6-1.62-0.15-2.55l0.54-1.13c0.33-0.69,0.7-1.46,1.01-2.12c0.5-1.08,0.12-1.69-0.31-2.38c-0.45-0.72-4.35-6.46-5-7.29C24.15,19.2,23.84,19,23.4,19z"/>
</svg>
