<svg version="1.1" xmlns="http://www.w3.org/2000/svg" xmlns:xlink="http://www.w3.org/1999/xlink" x="0px" y="0px" width="74px" height="74px" viewBox="0 0 74 74" style="enable-background:new 0 0 74 74;" xml:space="preserve">
	<path style="fill:#999999;" d="M37,58.5c-11.85,0-21.5-9.64-21.5-21.5c0-11.86,9.65-21.5,21.5-21.5c11.86,0,21.5,9.65,21.5,21.5C58.5,48.86,48.86,58.5,37,58.5z M37,17.5c-10.75,0-19.5,8.75-19.5,19.5S26.25,56.5,37,56.5c10.75,0,19.5-8.75,19.5-19.5S47.75,17.5,37,17.5z M45,43H29v-2h16V43z M48.93,34H25v-2h23.93V34z"/>
</svg>
