<?xml version="1.0" encoding="utf-8"?>
<!-- Generator: Adobe Illustrator 19.2.1, SVG Export Plug-In . SVG Version: 6.00 Build 0)  -->
<svg version="1.1" xmlns="http://www.w3.org/2000/svg" xmlns:xlink="http://www.w3.org/1999/xlink" x="0px" y="0px" width="16px"
	 height="17px" viewBox="0 0 16 17" style="enable-background:new 0 0 16 17;" xml:space="preserve">
<g id="Desktop">
	<g id="Bag_Drop_Down_1_">
		<g id="Account_1_">
			<path style="fill:#0070C9;" d="M9,1v1.35v0.71l0.67,0.24c0.17,0.06,0.33,0.13,0.48,0.2l0.64,0.3l0.5-0.5l0.95-0.95l1.41,1.41
				L12.7,4.71l-0.5,0.5l0.3,0.64c0.08,0.16,0.14,0.32,0.2,0.48L12.94,7h0.71H15v2h-1.35h-0.71l-0.24,0.67
				c-0.06,0.17-0.13,0.33-0.2,0.48l-0.3,0.64l0.5,0.5l0.95,0.95l-1.41,1.41l-0.95-0.95l-0.5-0.5l-0.64,0.3
				c-0.16,0.08-0.32,0.14-0.48,0.2L9,12.94v0.71V15H7v-1.35v-0.71l-0.67-0.24c-0.17-0.06-0.33-0.13-0.48-0.2l-0.64-0.3l-0.5,0.5
				l-0.95,0.95l-1.41-1.41l0.95-0.95l0.5-0.5l-0.3-0.64c-0.08-0.16-0.14-0.32-0.2-0.48L3.06,9H2.35H1V7h1.35h0.71l0.24-0.67
				c0.06-0.17,0.13-0.33,0.2-0.48l0.3-0.64l-0.5-0.5L2.34,3.76l1.41-1.41L4.71,3.3l0.5,0.5l0.64-0.3c0.16-0.08,0.32-0.14,0.48-0.2
				L7,3.06V2.35V1H9 M8,11.5c1.93,0,3.5-1.57,3.5-3.5S9.93,4.5,8,4.5S4.5,6.07,4.5,8S6.07,11.5,8,11.5 M9,0H7C6.45,0,6,0.45,6,1
				v1.35C5.8,2.42,5.61,2.5,5.42,2.59L4.46,1.64C4.27,1.44,4.01,1.34,3.76,1.34c-0.26,0-0.51,0.1-0.71,0.29L1.64,3.05
				c-0.39,0.39-0.39,1.03,0,1.41l0.95,0.95C2.5,5.61,2.42,5.8,2.35,6H1C0.45,6,0,6.45,0,7v2c0,0.55,0.45,1,1,1h1.35
				c0.07,0.2,0.15,0.39,0.24,0.58l-0.95,0.95c-0.39,0.39-0.39,1.03,0,1.41l1.41,1.41c0.19,0.19,0.45,0.29,0.71,0.29
				c0.26,0,0.51-0.1,0.71-0.29l0.95-0.95C5.61,13.5,5.8,13.58,6,13.65V15c0,0.55,0.45,1,1,1h2c0.55,0,1-0.45,1-1v-1.35
				c0.2-0.07,0.39-0.15,0.58-0.24l0.95,0.95c0.19,0.19,0.45,0.29,0.71,0.29c0.26,0,0.51-0.1,0.71-0.29l1.41-1.41
				c0.39-0.39,0.39-1.03,0-1.41l-0.95-0.95c0.09-0.19,0.17-0.38,0.24-0.58H15c0.55,0,1-0.45,1-1V7c0-0.55-0.45-1-1-1h-1.35
				c-0.07-0.2-0.15-0.39-0.24-0.58l0.95-0.95c0.39-0.39,0.39-1.03,0-1.41l-1.41-1.41c-0.19-0.19-0.45-0.29-0.71-0.29
				c-0.26,0-0.51,0.1-0.71,0.29l-0.95,0.95C10.39,2.5,10.2,2.42,10,2.35V1C10,0.45,9.55,0,9,0L9,0z M8,10.5
				c-1.38,0-2.5-1.12-2.5-2.5c0-1.38,1.12-2.5,2.5-2.5s2.5,1.12,2.5,2.5C10.5,9.38,9.38,10.5,8,10.5L8,10.5z"/>
			<rect style="fill:none;" width="16" height="17"/>
		</g>
	</g>
	<g id="Top_Nav">
	</g>
	<g id="Search_Results_Drop_Down">
	</g>
</g>
<g id="Mobile">
	<g id="Top_Nav_1_">
	</g>
	<g id="Search_1_">
	</g>
</g>
</svg>
