<svg version="1.1" xmlns="http://www.w3.org/2000/svg" xmlns:xlink="http://www.w3.org/1999/xlink" x="0px" y="0px" width="74px" height="74px" viewBox="0 0 74 74" style="enable-background:new 0 0 74 74;" xml:space="preserve">
	<path style="fill:#999999;" d="M53,18H21c-2.5,0-4,1.5-4,4v32c0,2.62,1.38,4,4,4h32c2.51,0,4-1.49,4-4V22C57,19.53,55.47,18,53,18zM55,22v15h-9.13c0.5-0.29,0.97-0.62,1.4-1.01c1.54-1.42,2.33-3.32,2.33-5.63c0-2.98-2.15-5.14-5.1-5.14c-2.11,0-4.17,1.12-5.67,3.08c-0.3,0.4-0.57,0.84-0.83,1.3V20h15C54.35,20,55,20.65,55,22z M38.22,36.8c0.13-3.05,0.88-5.55,2.19-7.28c1.11-1.46,2.6-2.29,4.08-2.29c1.55,0,3.1,0.97,3.1,3.14c0,1.75-0.55,3.11-1.68,4.15C43.73,36.54,39.97,36.79,38.22,36.8z M21,20h15v9.62c-0.24-0.46-0.52-0.89-0.83-1.31c-1.49-1.96-3.56-3.08-5.67-3.08c-2.96,0-5.1,2.16-5.1,5.14c0,2.31,0.78,4.2,2.33,5.63c0.43,0.39,0.9,0.72,1.39,1.01H19V22C19,20.58,19.58,20,21,20z M35.78,36.8c-1.74,0-5.5-0.26-7.69-2.28c-1.13-1.04-1.68-2.4-1.68-4.16c0-2.17,1.56-3.14,3.1-3.14c1.48,0,2.97,0.84,4.07,2.29C34.89,31.25,35.65,33.75,35.78,36.8z M19,54V39h16.37c-0.67,1.94-2.88,6.87-8.57,9.36l0.8,1.83c4.45-1.94,6.99-5.14,8.4-7.69V56H21C19.49,56,19,55.51,19,54z M53,56H38V42.5c1.4,2.55,3.95,5.75,8.4,7.69l0.8-1.83c-5.69-2.49-7.9-7.42-8.57-9.36H55v15C55,55.38,54.38,56,53,56z"/>
</svg>
