<?xml version="1.0" encoding="utf-8"?>
<!-- Generator: Adobe Illustrator 19.2.1, SVG Export Plug-In . SVG Version: 6.00 Build 0)  -->
<svg version="1.1" id="GLYPHS" xmlns="http://www.w3.org/2000/svg" xmlns:xlink="http://www.w3.org/1999/xlink" x="0px" y="0px"
	 width="44px" height="44px" viewBox="0 0 44 44" style="enable-background:new 0 0 44 44;" xml:space="preserve">
<g id="iPhone">
	<g>
		<path style="fill:#FFFFFF;" d="M0.63,17.31c0-0.45,0.37-0.82,0.82-0.82s0.82,0.37,0.82,0.82s-0.37,0.82-0.82,0.82
			S0.63,17.76,0.63,17.31z M0.86,19.63h1.18V27H0.86V19.63z"/>
	</g>
	<g>
		<path style="fill:#FFFFFF;" d="M8.01,17.14c1.87,0,3.16,1.31,3.16,3.19c0,1.85-1.32,3.15-3.17,3.15H5.52V27H4.29v-9.86H8.01z
			 M5.52,22.39h2.17c1.4,0,2.21-0.75,2.21-2.06c0-1.35-0.79-2.1-2.21-2.1H5.52V22.39z"/>
	</g>
	<g>
		<path style="fill:#FFFFFF;" d="M12.96,16.71h1.18v4.09h0.11c0.37-0.81,1.14-1.29,2.27-1.29c1.56,0,2.54,1,2.54,2.73V27h-1.18
			v-4.48c0-1.31-0.59-1.96-1.7-1.96c-1.32,0-2.04,0.83-2.04,2.08V27h-1.18V16.71z"/>
	</g>
	<g>
		<path style="fill:#FFFFFF;" d="M20.69,23.32c0-2.37,1.3-3.81,3.4-3.81s3.4,1.44,3.4,3.81c0,2.37-1.3,3.81-3.4,3.81
			S20.69,25.68,20.69,23.32z M26.27,23.32c0-1.75-0.79-2.75-2.18-2.75s-2.18,1-2.18,2.75c0,1.74,0.79,2.75,2.18,2.75
			S26.27,25.06,26.27,23.32z"/>
	</g>
	<g>
		<path style="fill:#FFFFFF;" d="M29.19,19.63h1.12v1.16h0.11c0.37-0.81,1.09-1.29,2.21-1.29c1.65,0,2.58,0.98,2.58,2.73V27h-1.18
			v-4.48c0-1.33-0.56-1.96-1.74-1.96s-1.93,0.79-1.93,2.08V27h-1.18V19.63z"/>
	</g>
	<g>
		<path style="fill:#FFFFFF;" d="M43.28,25.09c-0.36,1.26-1.49,2.04-3.1,2.04c-2.04,0-3.32-1.48-3.32-3.81
			c0-2.32,1.3-3.82,3.32-3.82c1.99,0,3.2,1.42,3.2,3.71v0.45h-5.3v0.05c0.06,1.46,0.88,2.38,2.13,2.38c0.95,0,1.59-0.35,1.9-1H43.28
			z M38.08,22.71h4.06c-0.03-1.31-0.81-2.17-1.98-2.17C38.99,20.54,38.17,21.4,38.08,22.71z"/>
	</g>
	<g>
		<rect y="0" style="fill:none;" width="44" height="44"/>
	</g>
</g>
</svg>
