<?xml version="1.0" encoding="utf-8"?>
<!-- Generator: Adobe Illustrator 20.1.0, SVG Export Plug-In . SVG Version: 6.00 Build 0)  -->
<svg version="1.1" id="Layer_1" xmlns="http://www.w3.org/2000/svg" xmlns:xlink="http://www.w3.org/1999/xlink" x="0px" y="0px"
	 width="94px" height="42px" viewBox="0 0 94 42" style="enable-background:new 0 0 94 42;" xml:space="preserve">
<rect style="fill:none;" width="94" height="42"/>
<path style="fill:#FFFFFF;" d="M8.79,27V16.38H2.48V27H1V15.02h9.25V27H8.79z M12.62,22.53c0-2.88,1.55-4.63,4.06-4.63
	s4.07,1.75,4.07,4.63c0,2.87-1.55,4.63-4.06,4.63S12.62,25.4,12.62,22.53z M19.3,22.53c0-2.12-0.94-3.34-2.61-3.34
	s-2.61,1.22-2.61,3.34s0.94,3.35,2.61,3.35S19.3,24.64,19.3,22.53z M21.82,29.37V25.8h0.74c0.65-0.43,0.96-1.56,1.05-2.76l0.34-4.99
	h6.01v7.75h1.41v3.56h-1.33V27h-6.89v2.37C23.15,29.37,21.82,29.37,21.82,29.37z M28.55,19.25H25.2l-0.28,3.83
	c-0.08,1.09-0.31,2.04-0.73,2.6v0.13h4.35v-6.56H28.55z M31.92,29.37V25.8h0.74c0.65-0.43,0.97-1.56,1.05-2.76l0.34-4.99h6.01v7.75
	h1.41v3.56h-1.33V27h-6.89v2.37C33.25,29.37,31.92,29.37,31.92,29.37z M38.65,19.25H35.3l-0.28,3.83c-0.08,1.09-0.31,2.04-0.73,2.6
	v0.13h4.35L38.65,19.25L38.65,19.25z M50.4,24.68c-0.43,1.54-1.78,2.47-3.71,2.47c-2.45,0-3.98-1.79-3.98-4.62
	c0-2.81,1.55-4.64,3.98-4.64c2.38,0,3.83,1.72,3.83,4.5v0.55h-6.34v0.07c0.07,1.77,1.05,2.89,2.54,2.89c1.14,0,1.91-0.42,2.27-1.21
	L50.4,24.68L50.4,24.68z M44.17,21.79h4.86c-0.03-1.59-0.96-2.63-2.36-2.63C45.26,19.16,44.28,20.2,44.17,21.79z M60.7,22.53
	c0,2.8-1.46,4.63-3.71,4.63c-1.26,0-2.27-0.56-2.76-1.5H54.1v4.33h-1.41V18.05h1.34v1.49h0.13c0.56-1.03,1.62-1.65,2.82-1.65
	C59.25,17.89,60.7,19.71,60.7,22.53z M59.25,22.53c0-2.09-0.96-3.34-2.58-3.34c-1.59,0-2.6,1.29-2.6,3.34s1.01,3.35,2.59,3.35
	C58.28,25.87,59.25,24.62,59.25,22.53z M62.05,27l3.89-4.71l-3.75-4.23h1.71l3.17,3.77h0.44v-3.77h1.37v3.77h0.44l3.17-3.77h1.68
	l-3.73,4.2l3.9,4.74h-1.78l-3.25-4.1h-0.44V27H67.5v-4.1h-0.45L63.81,27H62.05z M77.53,22.92V27h-1.41v-8.95h1.41v3.74h0.38
	l3.49-3.74h1.71l-4.04,4.22l4.2,4.73h-1.82l-3.53-4.08C77.92,22.92,77.53,22.92,77.53,22.92z M84.54,24.49
	c0-1.6,1.16-2.52,3.21-2.65l2.54-0.16v-0.81c0-1.1-0.68-1.71-2-1.71c-1.05,0-1.79,0.41-1.99,1.11h-1.42
	c0.19-1.44,1.58-2.38,3.46-2.38c2.15,0,3.35,1.12,3.35,2.98V27h-1.34v-1.32h-0.13c-0.57,0.96-1.54,1.48-2.71,1.48
	C85.8,27.16,84.54,26.13,84.54,24.49z M90.29,23.66v-0.82L87.92,23c-1.34,0.09-1.93,0.56-1.93,1.46c0,0.91,0.76,1.44,1.78,1.44
	C89.22,25.9,90.29,24.94,90.29,23.66z"/>
</svg>
