<?xml version="1.0" encoding="utf-8"?>
<!-- Generator: Adobe Illustrator 19.2.1, SVG Export Plug-In . SVG Version: 6.00 Build 0)  -->
<svg version="1.1" id="GLYPHS" xmlns="http://www.w3.org/2000/svg" xmlns:xlink="http://www.w3.org/1999/xlink" x="0px" y="0px"
	 width="37px" height="44px" viewBox="0 0 37 44" style="enable-background:new 0 0 37 44;" xml:space="preserve">
<g id="Music">
	<g>
		<path style="fill:#FFFFFF;" d="M8.79,27v-7.53H8.7l-3.11,7.46H4.55l-3.11-7.46H1.36V27H0.21v-9.86h1.43l3.38,8.16h0.11l3.38-8.16
			h1.43V27H8.79z"/>
	</g>
	<g>
		<path style="fill:#FFFFFF;" d="M18.12,27H17v-1.16h-0.11c-0.37,0.82-1.16,1.29-2.28,1.29c-1.65,0-2.52-0.98-2.52-2.73v-4.77h1.18
			v4.48c0,1.33,0.49,1.94,1.67,1.94c1.3,0,2.01-0.77,2.01-2.06v-4.36h1.18V27z"/>
	</g>
	<g>
		<path style="fill:#FFFFFF;" d="M22.77,19.5c1.54,0,2.62,0.77,2.78,1.98h-1.16c-0.16-0.59-0.73-0.98-1.62-0.98
			c-0.88,0-1.56,0.44-1.56,1.1c0,0.51,0.41,0.82,1.28,1.03l1.13,0.27c1.39,0.33,2.06,0.94,2.06,2c0,1.32-1.28,2.23-2.95,2.23
			c-1.64,0-2.77-0.79-2.9-2.01h1.21c0.2,0.62,0.79,1.02,1.73,1.02c0.99,0,1.7-0.47,1.7-1.15c0-0.51-0.38-0.85-1.17-1.04l-1.26-0.31
			c-1.38-0.33-2.01-0.93-2.01-2C20.02,20.42,21.21,19.5,22.77,19.5z"/>
	</g>
	<g>
		<path style="fill:#FFFFFF;" d="M27.18,17.31c0-0.45,0.37-0.82,0.82-0.82s0.82,0.37,0.82,0.82s-0.37,0.82-0.82,0.82
			S27.18,17.76,27.18,17.31z M27.41,19.63h1.18V27h-1.18V19.63z"/>
	</g>
	<g>
		<path style="fill:#FFFFFF;" d="M35.6,21.89c-0.19-0.73-0.84-1.33-1.9-1.33c-1.33,0-2.16,1.06-2.16,2.73c0,1.7,0.85,2.78,2.16,2.78
			c0.99,0,1.68-0.46,1.9-1.29h1.19c-0.21,1.35-1.31,2.35-3.08,2.35c-2.06,0-3.38-1.5-3.38-3.84c0-2.3,1.31-3.79,3.38-3.79
			c1.79,0,2.88,1.07,3.09,2.39H35.6z"/>
	</g>
	<g>
		<rect x="0" y="0" style="fill:none;" width="37" height="44"/>
	</g>
</g>
</svg>
