<svg version="1.1" xmlns="http://www.w3.org/2000/svg" xmlns:xlink="http://www.w3.org/1999/xlink" x="0px" y="0px" width="74px" height="74px" viewBox="0 0 74 74" style="enable-background:new 0 0 74 74;" xml:space="preserve">
	<path style="fill:#888888;" d="M57.94,55.76c-2.37,0-5.64-0.65-8.72-3.45c-0.74,0.06-2.22,0.17-3.31,0.17c-7.31,0-13.66-3.81-15.34-8.77c-1.58-0.08-3.15-0.31-4.67-0.71c-5.56,5.75-11.59,3.54-12.27,3.27L12,45.61l1.39-1.06c3.39-2.59,4.29-4.34,4.75-5.56c-2.55-2.3-3.94-5.2-3.94-8.25c0-7.16,7.85-12.99,17.51-12.99c9.34,0,17.01,5.43,17.53,12.25c7.06,1.11,12.37,5.67,12.37,11.11c0,2.72-1.56,5.43-4.41,7.69c0.46,1.01,1.42,2.46,4.41,4.75l1.49,1.14l-1.78,0.6C61.2,55.33,59.87,55.76,57.94,55.76z M49.95,50.23l0.33,0.32c3.02,2.93,6.33,3.31,8.39,3.18c-2.45-2.16-3.14-3.62-3.63-4.93l-0.26-0.71l0.62-0.44c2.67-1.93,4.2-4.31,4.2-6.54c0-5.07-6.27-9.36-13.7-9.36c-7.47,0-13.78,4.29-13.78,9.36c0,5.08,6.31,9.37,13.78,9.37c1.4,0,3.56-0.2,3.58-0.2L49.95,50.23z M16.15,44.87c2.04,0.28,5.41-0.02,8.68-3.66l0.42-0.47l0.6,0.17c1.39,0.4,2.83,0.66,4.29,0.76c-0.01-0.19-0.02-0.38-0.02-0.58c0-6.16,7.23-11.36,15.78-11.36c0.44,0,0.87,0.01,1.29,0.04c-0.69-5.61-7.38-10.03-15.5-10.03c-8.55,0-15.51,4.93-15.51,10.99c0,2.64,1.33,5.19,3.75,7.16l0.55,0.45l-0.31,0.86C19.77,40.39,19.11,42.26,16.15,44.87z"/>
</svg>
