<?xml version="1.0" encoding="utf-8"?>
<!-- Generator: Adobe Illustrator 19.2.1, SVG Export Plug-In . SVG Version: 6.00 Build 0)  -->
<svg version="1.1" id="GLYPHS" xmlns="http://www.w3.org/2000/svg" xmlns:xlink="http://www.w3.org/1999/xlink" x="0px" y="0px"
	 width="46px" height="42px" viewBox="0 0 46 42" style="enable-background:new 0 0 46 42;" xml:space="preserve">
<g id="Music_1_">
	<g>
		<rect style="fill:none;" width="46" height="42"/>
	</g>
	<g>
		<path style="fill:#FFFFFF;" d="M11.54,27v-9.15h-0.1l-3.78,9.06H6.41l-3.78-9.06h-0.1V27H1.13V15.02h1.73l4.1,9.91H7.1l4.1-9.91
			h1.74V27H11.54z M22.74,27h-1.36v-1.4h-0.13c-0.45,1-1.4,1.56-2.77,1.56c-2.01,0-3.05-1.2-3.05-3.31v-5.79h1.43v5.45
			c0,1.61,0.6,2.36,2.03,2.36c1.58,0,2.44-0.94,2.44-2.51v-5.3h1.43V27z M28.25,17.89c1.88,0,3.18,0.93,3.37,2.4h-1.41
			c-0.19-0.71-0.89-1.19-1.97-1.19c-1.06,0-1.89,0.54-1.89,1.34c0,0.61,0.5,1,1.55,1.25l1.38,0.33c1.68,0.41,2.5,1.14,2.5,2.42
			c0,1.6-1.55,2.71-3.59,2.71c-1.99,0-3.36-0.95-3.52-2.44h1.47c0.24,0.76,0.96,1.24,2.1,1.24c1.2,0,2.07-0.57,2.07-1.39
			c0-0.61-0.46-1.03-1.42-1.26l-1.54-0.37c-1.68-0.41-2.44-1.13-2.44-2.42C24.92,19.01,26.35,17.89,28.25,17.89z M33.47,15.24
			c0-0.55,0.45-1,1-1s1,0.45,1,1s-0.45,1-1,1S33.47,15.79,33.47,15.24z M33.75,18.05h1.43V27h-1.43V18.05z M43.56,20.79
			c-0.23-0.89-1.02-1.61-2.31-1.61c-1.61,0-2.62,1.29-2.62,3.31c0,2.07,1.03,3.38,2.62,3.38c1.2,0,2.04-0.56,2.31-1.57H45
			c-0.26,1.64-1.59,2.86-3.74,2.86c-2.51,0-4.11-1.82-4.11-4.67c0-2.79,1.59-4.6,4.1-4.6c2.17,0,3.5,1.3,3.75,2.9H43.56z"/>
	</g>
</g>
</svg>
