<?xml version="1.0" encoding="utf-8"?>
<!-- Generator: Adobe Illustrator 19.2.1, SVG Export Plug-In . SVG Version: 6.00 Build 0)  -->
<svg version="1.1" id="GLYPHS" xmlns="http://www.w3.org/2000/svg" xmlns:xlink="http://www.w3.org/1999/xlink" x="0px" y="0px"
	 width="18px" height="48px" viewBox="0 0 18 48" style="enable-background:new 0 0 18 48;" xml:space="preserve">
<g id="Apple_1_">
	<g>
		<g>
			<path style="fill:#FFFFFF;" d="M16.33,25.1c-0.93-0.87-1.41-1.95-1.42-3.26c-0.01-1.68,0.75-2.99,2.29-3.92
				c-0.86-1.23-2.16-1.91-3.88-2.04c-0.64-0.05-1.41,0.08-2.33,0.41c-0.97,0.36-1.55,0.54-1.72,0.54c-0.23,0-0.74-0.15-1.55-0.45
				c-0.81-0.3-1.45-0.45-1.95-0.45c-0.9,0.01-1.75,0.25-2.52,0.71c-0.78,0.46-1.4,1.09-1.86,1.89C0.8,19.5,0.5,20.69,0.5,22.06
				c0,1.2,0.22,2.44,0.66,3.72C1.57,26.96,2.09,28,2.73,28.9c0.59,0.84,1.09,1.43,1.48,1.78c0.62,0.58,1.24,0.85,1.86,0.83
				c0.41-0.01,0.95-0.15,1.61-0.42c0.66-0.27,1.28-0.4,1.86-0.4c0.55,0,1.16,0.13,1.81,0.4c0.66,0.27,1.22,0.4,1.69,0.4
				c0.65-0.01,1.26-0.28,1.82-0.8c0.37-0.32,0.84-0.89,1.42-1.71c0.43-0.61,0.79-1.27,1.1-1.98c0.13-0.3,0.25-0.62,0.36-0.95
				C17.23,25.81,16.76,25.5,16.33,25.1z M12.32,14.28c0.75-0.89,1.12-1.84,1.12-2.87c0-0.14-0.01-0.27-0.02-0.41
				c-0.52,0.03-1.07,0.18-1.66,0.47c-0.58,0.29-1.07,0.65-1.45,1.09c-0.76,0.86-1.19,1.91-1.19,2.9c0,0.14,0.01,0.27,0.02,0.39
				C10.33,15.94,11.42,15.33,12.32,14.28z"/>
		</g>
	</g>
	<g>
		<rect style="fill:none;" width="18" height="48"/>
	</g>
</g>
</svg>
