<svg version="1.1" xmlns="http://www.w3.org/2000/svg" xmlns:xlink="http://www.w3.org/1999/xlink" x="0px" y="0px" width="74px" height="74px" viewBox="0 0 74 74" style="enable-background:new 0 0 74 74;" xml:space="preserve">
	<path style="fill:#888888;" d="M37,61.3L31.88,56h-7.4C21.21,56,18,52.78,18,49.5V24.7c-0.02-1.57,0.76-3.32,2.08-4.66c1.29-1.3,2.89-2.04,4.4-2.04h25.04c3.14,0,6.48,2.28,6.48,6.5v25c0,3.28-3.21,6.5-6.48,6.5h-7.4L37,61.3z M24.48,20c-0.97,0-2.08,0.54-2.97,1.45c-0.96,0.96-1.52,2.17-1.51,3.24V49.5c0,2.19,2.3,4.5,4.48,4.5h8.25L37,58.43L41.27,54h8.25C51.7,54,54,51.69,54,49.5v-25c0-2.95-2.25-4.5-4.48-4.5H24.48z M40.37,31.68c-1.4-0.1-2.59,0.78-3.25,0.78c-0.67,0-1.71-0.76-2.81-0.74c-1.44,0.02-2.78,0.84-3.52,2.13c-1.5,2.6-0.38,6.46,1.08,8.58c0.72,1.03,1.57,2.2,2.69,2.15c1.08-0.04,1.49-0.7,2.79-0.7s1.67,0.7,2.81,0.68c1.16-0.02,1.9-1.05,2.61-2.09c0.82-1.2,1.16-2.36,1.18-2.42c-0.03-0.01-2.26-0.87-2.28-3.44c-0.02-2.15,1.76-3.19,1.84-3.24C42.48,31.89,40.92,31.73,40.37,31.68z M39.5,30.29c0.6-0.72,1-1.72,0.89-2.72c-0.86,0.03-1.89,0.57-2.51,1.29c-0.55,0.64-1.03,1.66-0.9,2.63C37.93,31.57,38.91,31.01,39.5,30.29z"/>
</svg>
