<?xml version="1.0" encoding="utf-8"?>
<!-- Generator: Adobe Illustrator 19.2.1, SVG Export Plug-In . SVG Version: 6.00 Build 0)  -->
<svg version="1.1" id="GLYPHS" xmlns="http://www.w3.org/2000/svg" xmlns:xlink="http://www.w3.org/1999/xlink" x="0px" y="0px"
	 width="33px" height="42px" viewBox="0 0 33 42" style="enable-background:new 0 0 33 42;" xml:space="preserve">
<g id="Mac_1_">
	<g>
		<rect style="fill:none;" width="33" height="42"/>
	</g>
	<g>
		<path style="fill:#FFFFFF;" d="M11.41,27v-9.15h-0.1l-3.78,9.06H6.27l-3.78-9.06h-0.1V27H1V15.02h1.73l4.1,9.91h0.13l4.1-9.91
			h1.74V27H11.41z M14.84,24.49c0-1.6,1.18-2.52,3.26-2.65l2.58-0.16v-0.81c0-1.1-0.69-1.71-2.03-1.71c-1.07,0-1.82,0.41-2.02,1.11
			H15.2c0.19-1.44,1.6-2.38,3.51-2.38c2.18,0,3.4,1.12,3.4,2.98V27h-1.36v-1.32h-0.13c-0.58,0.95-1.56,1.48-2.76,1.48
			C16.12,27.16,14.84,26.13,14.84,24.49z M20.68,23.66v-0.82L18.28,23c-1.36,0.09-1.96,0.56-1.96,1.46c0,0.91,0.77,1.44,1.81,1.44
			C19.6,25.9,20.68,24.94,20.68,23.66z M30.4,20.79c-0.23-0.89-1.02-1.61-2.31-1.61c-1.61,0-2.62,1.29-2.62,3.31
			c0,2.07,1.03,3.38,2.62,3.38c1.2,0,2.04-0.56,2.31-1.57h1.44c-0.26,1.64-1.59,2.86-3.74,2.86c-2.51,0-4.11-1.82-4.11-4.67
			c0-2.79,1.59-4.6,4.1-4.6c2.17,0,3.5,1.3,3.75,2.9H30.4z"/>
	</g>
</g>
</svg>
