<?xml version="1.0" standalone="no"?>
<!DOCTYPE svg PUBLIC "-//W3C//DTD SVG 20010904//EN"
 "http://www.w3.org/TR/2001/REC-SVG-20010904/DTD/svg10.dtd">
<svg version="1.0" xmlns="http://www.w3.org/2000/svg"
 width="900.000000pt" height="520.000000pt" viewBox="0 0 900.000000 520.000000"
 preserveAspectRatio="xMidYMid meet">
<metadata>
Created by potrace 1.15, written by Peter Selinger 2001-2017
</metadata>
<g transform="translate(0.000000,520.000000) scale(0.100000,-0.100000)"
fill="#FFFFFF" stroke="none">
<path d="M4325 4604 c-524 -40 -921 -146 -1340 -359 -287 -146 -570 -344 -766
-536 -95 -92 -121 -145 -121 -244 0 -150 93 -257 245 -286 102 -18 173 9 287
111 440 393 934 625 1510 706 155 22 525 25 680 6 580 -73 1100 -310 1531
-698 111 -99 169 -127 263 -128 55 0 81 4 115 22 74 39 111 75 142 139 28 56
31 69 27 140 -2 49 -11 93 -23 118 -39 82 -281 292 -520 450 -456 302 -929
475 -1475 540 -124 15 -458 26 -555 19z"/>
<path d="M4205 3605 c-326 -43 -640 -152 -920 -319 -210 -126 -459 -337 -506
-427 -15 -29 -24 -69 -27 -117 -4 -66 -2 -78 28 -138 57 -117 155 -171 288
-162 84 6 128 28 217 110 253 233 545 383 876 450 99 20 144 23 339 23 195 0
240 -3 338 -23 324 -66 626 -220 874 -449 85 -77 154 -112 228 -114 128 -4
222 49 278 156 22 42 26 63 27 130 0 117 -29 169 -159 285 -124 109 -208 173
-329 249 -302 191 -652 312 -1012 351 -123 13 -419 11 -540 -5z"/>
<path d="M4349 2630 c-307 -35 -579 -164 -801 -378 -108 -104 -140 -163 -140
-261 -1 -174 136 -301 311 -289 86 6 132 31 233 123 200 185 450 260 695 209
161 -33 273 -93 414 -220 103 -92 151 -114 249 -114 81 0 150 30 202 88 50 55
68 94 78 163 16 115 -20 189 -154 316 -137 130 -324 242 -501 302 -161 53
-418 80 -586 61z"/>
<path d="M4431 1610 c-145 -30 -261 -153 -280 -296 -21 -155 60 -308 199 -373
78 -36 193 -41 272 -11 141 53 230 181 230 332 0 80 -14 125 -58 195 -73 115
-228 181 -363 153z"/>
</g>
</svg>
