<?xml version="1.0" encoding="utf-8"?>
<!-- Generator: Adobe Illustrator 19.2.1, SVG Export Plug-In . SVG Version: 6.00 Build 0)  -->
<svg version="1.1" xmlns="http://www.w3.org/2000/svg" xmlns:xlink="http://www.w3.org/1999/xlink" x="0px" y="0px" width="17px"
	 height="18px" viewBox="0 0 17 18" style="enable-background:new 0 0 17 18;" xml:space="preserve">
<g id="Desktop">
	<g id="Bag_Drop_Down_1_">
		<g id="Sign_Out">
			<rect style="fill:none;" width="17" height="18"/>
			<path style="fill:#0070C9;" d="M8.5,0.53c-4.4,0-7.97,3.57-7.97,7.97c0,4.4,3.57,7.97,7.97,7.97c4.4,0,7.97-3.57,7.97-7.97
				C16.47,4.1,12.9,0.53,8.5,0.53z M12.53,14.18c-0.05-0.02-0.09-0.04-0.11-0.05c-0.44-0.16-0.89-0.27-1.34-0.36
				c-0.63-0.12-0.84-0.42-0.88-1.07c0-0.1-0.13-0.89-0.03-0.94c0.42-0.21,0.48-0.87,0.52-1.27c0.03-0.3,0.18-0.43,0.32-0.67
				c0.15-0.27,0.29-0.64,0.37-0.93c0.06-0.21,0.17-0.57,0.13-0.79c-0.04-0.2-0.19-0.39-0.19-0.61c0-0.28,0.04-0.5,0.07-0.78
				c0.05-0.43,0.04-0.87-0.05-1.29c-0.04-0.22-0.14-0.46-0.26-0.64c-0.16-0.26-0.39-0.47-0.64-0.62C9.9,3.81,9.17,3.58,8.5,3.59
				C7.83,3.58,7.1,3.81,6.56,4.14C6.31,4.3,6.08,4.51,5.92,4.77C5.81,4.95,5.71,5.19,5.67,5.41C5.58,5.84,5.57,6.27,5.62,6.7
				c0.03,0.28,0.07,0.5,0.07,0.78c0,0.22-0.15,0.4-0.19,0.61C5.46,8.32,5.56,8.67,5.62,8.88C5.7,9.17,5.85,9.55,6,9.81
				c0.14,0.24,0.29,0.38,0.32,0.67c0.04,0.4,0.11,1.06,0.52,1.27c0.1,0.05-0.03,0.84-0.03,0.94c-0.04,0.65-0.26,0.95-0.88,1.07
				c-0.46,0.09-0.91,0.21-1.34,0.36c-0.02,0.01-0.06,0.03-0.1,0.05C2.7,12.92,1.53,10.84,1.53,8.5c0-3.84,3.13-6.97,6.97-6.97
				s6.97,3.13,6.97,6.97C15.47,10.84,14.3,12.91,12.53,14.18z"/>
		</g>
	</g>
	<g id="Top_Nav">
	</g>
	<g id="Search_Results_Drop_Down">
	</g>
</g>
<g id="Mobile">
	<g id="Top_Nav_1_">
	</g>
	<g id="Search_1_">
	</g>
</g>
</svg>
