<?xml version="1.0" encoding="utf-8"?>
<!-- Generator: Adobe Illustrator 19.2.1, SVG Export Plug-In . SVG Version: 6.00 Build 0)  -->
<svg version="1.1" id="GLYPHS" xmlns="http://www.w3.org/2000/svg" xmlns:xlink="http://www.w3.org/1999/xlink" x="0px" y="0px"
	 width="17px" height="15px" viewBox="0 0 17 15" style="enable-background:new 0 0 17 15;" xml:space="preserve">
<g id="Favorites">
	<g>
		<path style="fill:#0070C9;" d="M12.33,1.73c1.93,0,3.17,1.2,3.17,3.06c0,0.94-0.38,1.82-1.08,2.5L8.5,13.32L2.56,7.28
			C1.88,6.62,1.5,5.74,1.5,4.8c0-1.8,1.42-3.06,3.44-3.06c1.23,0,2.33,1.31,2.75,1.87l0.8,1.07L9.3,3.6
			C9.98,2.69,11.27,1.73,12.33,1.73 M12.33,0.73C10.87,0.73,9.31,1.92,8.5,3C7.69,1.92,6.4,0.73,4.94,0.73
			C2.49,0.73,0.5,2.34,0.5,4.8c0,1.26,0.53,2.39,1.37,3.2l6.63,6.75L15.13,8c0.84-0.81,1.37-1.94,1.37-3.2
			C16.5,2.34,14.78,0.73,12.33,0.73L12.33,0.73z"/>
	</g>
	<g>
		<rect x="0" style="fill:none;" width="17" height="15"/>
	</g>
</g>
</svg>
