<?xml version="1.0" encoding="utf-8"?>
<!-- Generator: Adobe Illustrator 19.2.1, SVG Export Plug-In . SVG Version: 6.00 Build 0)  -->
<svg version="1.1" id="GLYPHS" xmlns="http://www.w3.org/2000/svg" xmlns:xlink="http://www.w3.org/1999/xlink" x="0px" y="0px"
	 width="27px" height="44px" viewBox="0 0 27 44" style="enable-background:new 0 0 27 44;" xml:space="preserve">
<g id="iPad">
	<g>
		<path style="fill:#FFFFFF;" d="M0.55,17.31c0-0.45,0.37-0.82,0.82-0.82s0.82,0.37,0.82,0.82s-0.37,0.82-0.82,0.82
			S0.55,17.76,0.55,17.31z M0.79,19.63h1.18V27H0.79V19.63z"/>
	</g>
	<g>
		<path style="fill:#FFFFFF;" d="M7.94,17.14c1.87,0,3.16,1.31,3.16,3.19c0,1.85-1.32,3.15-3.17,3.15H5.45V27H4.21v-9.86H7.94z
			 M5.45,22.39h2.17c1.4,0,2.21-0.75,2.21-2.06c0-1.35-0.79-2.1-2.21-2.1H5.45V22.39z"/>
	</g>
	<g>
		<path style="fill:#FFFFFF;" d="M12.11,24.94c0-1.32,0.97-2.08,2.69-2.18l2.13-0.13v-0.67c0-0.91-0.57-1.41-1.67-1.41
			c-0.88,0-1.5,0.33-1.66,0.92H12.4c0.16-1.18,1.32-1.96,2.89-1.96c1.8,0,2.8,0.92,2.8,2.45V27h-1.12v-1.09h-0.11
			c-0.48,0.79-1.29,1.22-2.27,1.22C13.17,27.13,12.11,26.28,12.11,24.94z M16.92,24.25v-0.68l-1.98,0.13
			c-1.12,0.08-1.61,0.46-1.61,1.2c0,0.75,0.64,1.19,1.49,1.19C16.02,26.1,16.92,25.3,16.92,24.25z"/>
	</g>
	<g>
		<path style="fill:#FFFFFF;" d="M19.76,23.32c0-2.31,1.22-3.81,3.1-3.81c1.03,0,1.89,0.49,2.31,1.29h0.1v-4.09h1.18V27h-1.12v-1.18
			h-0.11c-0.46,0.82-1.34,1.31-2.36,1.31C20.97,27.13,19.76,25.63,19.76,23.32z M20.98,23.32c0,1.72,0.81,2.75,2.15,2.75
			c1.34,0,2.17-1.05,2.17-2.75c0-1.69-0.83-2.75-2.17-2.75C21.79,20.56,20.98,21.6,20.98,23.32z"/>
	</g>
	<g>
		<rect style="fill:none;" width="27" height="44"/>
	</g>
</g>
</svg>
