<svg version="1.1" xmlns="http://www.w3.org/2000/svg" xmlns:xlink="http://www.w3.org/1999/xlink" x="0px" y="0px" width="74px" height="74px" viewBox="0 0 74 74" style="enable-background:new 0 0 74 74;" xml:space="preserve">
	<path style="fill:#999999;" d="M41,59h-8c-0.55,0-1-0.45-1-1v-3.77c-1.24-0.35-2.19-0.8-3.1-1.31l-2.77,2.8c-0.19,0.19-0.44,0.3-0.71,0.3h0c-0.27,0-0.52-0.11-0.71-0.29l-5.9-5.91c-0.38-0.38-0.39-1-0.02-1.39l2.85-3.03c-0.58-1.08-1.01-2.18-1.33-3.38H16c-0.55,0-1-0.45-1-1v-8c0-0.55,0.45-1,1-1h4.31c0.32-1.2,0.76-2.31,1.33-3.39l-2.85-3.02c-0.37-0.39-0.36-1.01,0.02-1.39l5.9-5.91c0.19-0.19,0.44-0.29,0.71-0.29c0,0,0,0,0,0c0.27,0,0.52,0.11,0.71,0.3l2.77,2.8c0.91-0.51,1.86-0.96,3.1-1.31V16c0-0.55,0.45-1,1-1h8c0.55,0,1,0.45,1,1v3.77c1.24,0.35,2.19,0.8,3.1,1.31l2.77-2.8c0.19-0.19,0.44-0.3,0.71-0.3c0,0,0,0,0,0c0.27,0,0.52,0.11,0.71,0.29l5.9,5.91c0.38,0.38,0.39,1,0.02,1.39l-2.85,3.02c0.58,1.08,1.01,2.18,1.33,3.39H58c0.55,0,1,0.45,1,1v8c0,0.55-0.45,1-1,1h-4.31c-0.32,1.21-0.76,2.31-1.33,3.38l2.85,3.03c0.37,0.39,0.36,1.01-0.02,1.39l-5.9,5.91c-0.19,0.19-0.44,0.29-0.71,0.29h0c-0.27,0-0.52-0.11-0.71-0.3l-2.77-2.8c-0.91,0.51-1.86,0.96-3.1,1.31V58C42,58.55,41.55,59,41,59z M34,57h6v-3.55c0-0.47,0.33-0.88,0.79-0.98c1.71-0.38,2.76-0.95,3.97-1.67c0.39-0.23,0.9-0.17,1.22,0.16l2.61,2.63l4.5-4.52l-2.69-2.85c-0.31-0.32-0.36-0.81-0.13-1.19c0.79-1.33,1.32-2.68,1.66-4.24c0.1-0.46,0.51-0.78,0.98-0.78H57v-6h-4.1c-0.47,0-0.88-0.33-0.98-0.78c-0.35-1.56-0.88-2.91-1.66-4.24c-0.23-0.38-0.17-0.87,0.13-1.19l2.69-2.85l-4.5-4.52l-2.61,2.63c-0.32,0.33-0.83,0.39-1.22,0.16c-1.21-0.71-2.27-1.29-3.97-1.67c-0.46-0.1-0.79-0.51-0.79-0.98V17h-6v3.55c0,0.47-0.33,0.88-0.79,0.98c-1.7,0.38-2.76,0.95-3.97,1.67c-0.39,0.23-0.9,0.17-1.22-0.16l-2.61-2.63l-4.5,4.52l2.69,2.85c0.31,0.32,0.36,0.81,0.13,1.19c-0.79,1.33-1.32,2.68-1.66,4.24C21.97,33.67,21.56,34,21.1,34H17v6h4.1c0.47,0,0.88,0.33,0.98,0.78c0.35,1.56,0.88,2.91,1.66,4.24c0.23,0.38,0.17,0.87-0.13,1.19l-2.69,2.85l4.5,4.52l2.61-2.63c0.32-0.33,0.83-0.39,1.22-0.16c1.21,0.71,2.27,1.29,3.97,1.67c0.46,0.1,0.79,0.51,0.79,0.98V57z M37,45.15c-4.57,0-8.15-3.58-8.15-8.15s3.58-8.15,8.15-8.15s8.15,3.58,8.15,8.15S41.57,45.15,37,45.15z M37,30.85c-3.51,0-6.15,2.64-6.15,6.15c0,3.51,2.64,6.15,6.15,6.15s6.15-2.64,6.15-6.15C43.15,33.49,40.51,30.85,37,30.85z"/>
</svg>
