<?xml version="1.0" encoding="utf-8"?>
<!-- Generator: Adobe Illustrator 19.2.1, SVG Export Plug-In . SVG Version: 6.00 Build 0)  -->
<svg version="1.1" id="GLYPHS" xmlns="http://www.w3.org/2000/svg" xmlns:xlink="http://www.w3.org/1999/xlink" x="0px" y="0px"
	 width="27px" height="44px" viewBox="0 0 27 44" style="enable-background:new 0 0 27 44;" xml:space="preserve">
<g id="Mac">
	<g>
		<path style="fill:#FFFFFF;" d="M9.26,27v-7.53H9.18l-3.11,7.46H5.03l-3.11-7.46H1.83V27H0.69v-9.86h1.43l3.38,8.16H5.6l3.38-8.16
			h1.43V27H9.26z"/>
	</g>
	<g>
		<path style="fill:#FFFFFF;" d="M12.19,24.94c0-1.32,0.97-2.08,2.69-2.18l2.13-0.13v-0.67c0-0.91-0.57-1.41-1.67-1.41
			c-0.88,0-1.5,0.33-1.66,0.92h-1.19c0.16-1.18,1.32-1.96,2.89-1.96c1.8,0,2.8,0.92,2.8,2.45V27h-1.12v-1.09h-0.11
			c-0.48,0.79-1.29,1.22-2.27,1.22C13.25,27.13,12.19,26.28,12.19,24.94z M17.01,24.25v-0.68l-1.98,0.13
			c-1.12,0.08-1.61,0.46-1.61,1.2c0,0.75,0.64,1.19,1.49,1.19C16.11,26.1,17.01,25.3,17.01,24.25z"/>
	</g>
	<g>
		<path style="fill:#FFFFFF;" d="M25.12,21.89c-0.19-0.73-0.84-1.33-1.9-1.33c-1.33,0-2.16,1.06-2.16,2.73
			c0,1.7,0.85,2.78,2.16,2.78c0.99,0,1.68-0.46,1.9-1.29h1.19c-0.21,1.35-1.31,2.35-3.08,2.35c-2.06,0-3.38-1.5-3.38-3.84
			c0-2.3,1.31-3.79,3.38-3.79c1.79,0,2.88,1.07,3.09,2.39H25.12z"/>
	</g>
	<g>
		<rect x="0" y="0" style="fill:none;" width="27" height="44"/>
	</g>
</g>
</svg>
