<svg version="1.1" xmlns="http://www.w3.org/2000/svg" xmlns:xlink="http://www.w3.org/1999/xlink" x="0px" y="0px" width="74px" height="74px" viewBox="0 0 74 74" style="enable-background:new 0 0 74 74;" xml:space="preserve">
	<path style="fill:#999999;" d="M48.08,57H25.92C20.75,57,17,53.25,17,48.08V25.92c0-5.17,3.75-8.92,8.92-8.92h22.17C53,17,57,21.29,57,26.55v21.53C57,53.33,53.33,57,48.08,57z M25.92,19C21.84,19,19,21.84,19,25.92v22.17c0,4.07,2.84,6.92,6.92,6.92h22.17c4.14,0,6.92-2.78,6.92-6.92V26.55c0-4.24-3.04-7.55-6.92-7.55H25.92z"/>
	<path style="fill:#999999;" d="M45.71,28H42.5c0-1.94-2.63-4.5-5.5-4.5s-5.5,2.56-5.5,4.5h-3.21C26.76,28,26,28.76,26,30.29v16.42c0,1.43,0.81,2.29,2.29,2.29h17.42c1.53,0,2.29-0.76,2.29-2.29V30.29C48,28.81,47.19,28,45.71,28z M40.67,39.84c-0.14,0.33-0.31,0.63-0.5,0.92c-0.26,0.38-0.47,0.65-0.64,0.8c-0.25,0.24-0.53,0.37-0.82,0.38c-0.21,0-0.47-0.06-0.76-0.19c-0.3-0.13-0.57-0.19-0.82-0.19c-0.26,0-0.54,0.06-0.84,0.19c-0.3,0.13-0.55,0.19-0.73,0.2c-0.28,0.01-0.55-0.12-0.84-0.38c-0.18-0.16-0.4-0.43-0.67-0.82c-0.29-0.42-0.52-0.89-0.71-1.45c-0.2-0.59-0.3-1.17-0.3-1.73c0-0.63,0.13-1.18,0.4-1.65c0.21-0.37,0.49-0.66,0.84-0.88c0.36-0.21,0.73-0.32,1.14-0.33c0.22,0,0.52,0.06,0.89,0.21c0.36,0.14,0.59,0.21,0.7,0.21c0.08,0,0.34-0.08,0.78-0.25c0.41-0.15,0.77-0.21,1.06-0.19c0.78,0.06,1.36,0.38,1.75,0.95c-0.7,0.44-1.05,1.05-1.04,1.82c0.01,0.61,0.22,1.12,0.63,1.51c0.2,0.19,0.41,0.33,0.64,0.43C40.79,39.55,40.73,39.69,40.67,39.84z M36.92,34.4c0-0.46,0.17-0.89,0.52-1.3c0.18-0.21,0.39-0.37,0.66-0.5c0.26-0.13,0.51-0.21,0.75-0.22c0.01,0.06,0.01,0.13,0.01,0.19c0,0.47-0.17,0.93-0.51,1.34c-0.41,0.49-0.89,0.72-1.42,0.67C36.92,34.52,36.92,34.46,36.92,34.4z M32.5,28c0-1.5,1.89-3.5,4.5-3.5s4.5,2.06,4.5,3.5H32.5z"/>
</svg>
