<svg version="1.1" xmlns="http://www.w3.org/2000/svg" xmlns:xlink="http://www.w3.org/1999/xlink" x="0px" y="0px" width="74px" height="74px" viewBox="0 0 74 74" style="enable-background:new 0 0 74 74;" xml:space="preserve">
	<path style="fill:#999999;" d="M51,57H23c-2.62,0-4-1.38-4-4V26c0-2.5,1.5-4,4-4h5.44c0.4-5.05,3.81-8.5,8.56-8.5s8.17,3.45,8.56,8.5H51c2.47,0,4,1.53,4,4v27C55,55.5,53.5,57,51,57z M23,24c-1.42,0-2,0.58-2,2v27c0,1.51,0.49,2,2,2h28c1.38,0,2-0.62,2-2V26c0-1.35-0.65-2-2-2H23z M30.45,22h13.11c-0.37-3.93-2.91-6.5-6.55-6.5S30.81,18.07,30.45,22z"/>
	<path style="fill:#999999;" d="M38.2,46.38c-0.53-0.22-1.01-0.33-1.45-0.33c-0.47,0-0.96,0.11-1.5,0.33c-0.53,0.22-0.96,0.33-1.29,0.35c-0.5,0.02-1-0.2-1.5-0.68c-0.32-0.28-0.72-0.77-1.19-1.46C30.75,43.84,30.33,42.98,30,42c-0.35-1.06-0.53-2.08-0.53-3.06c0-1.13,0.24-2.11,0.71-2.93c0.37-0.66,0.87-1.18,1.5-1.56c0.63-0.38,1.3-0.57,2.03-0.59c0.4,0,0.92,0.13,1.57,0.37c0.65,0.25,1.06,0.37,1.24,0.37c0.14,0,0.6-0.14,1.38-0.44c0.74-0.27,1.36-0.38,1.87-0.34c1.38,0.11,2.42,0.68,3.12,1.69c-1.23,0.77-1.85,1.85-1.84,3.24c0.01,1.08,0.39,1.97,1.14,2.69c0.34,0.33,0.72,0.59,1.14,0.77c-0.09,0.28-0.19,0.53-0.29,0.79c-0.25,0.59-0.55,1.13-0.89,1.63c-0.47,0.68-0.85,1.15-1.14,1.41c-0.45,0.43-0.94,0.65-1.46,0.66C39.18,46.71,38.73,46.6,38.2,46.38z"/>
	<path style="fill:#999999;" d="M36.37,33.32c0-0.82,0.31-1.58,0.92-2.3c0.31-0.36,0.69-0.66,1.16-0.9c0.47-0.24,0.92-0.37,1.34-0.4c0.01,0.12,0.02,0.23,0.02,0.34c0,0.85-0.3,1.65-0.9,2.38c-0.73,0.88-1.57,1.27-2.52,1.19C36.38,33.54,36.37,33.44,36.37,33.32z"/>
</svg>
