<?xml version="1.0" encoding="utf-8"?>
<!-- Generator: Adobe Illustrator 19.2.1, SVG Export Plug-In . SVG Version: 6.00 Build 0)  -->
<svg version="1.1" id="GLYPHS" xmlns="http://www.w3.org/2000/svg" xmlns:xlink="http://www.w3.org/1999/xlink" x="0px" y="0px"
	 width="33px" height="42px" viewBox="0 0 33 42" style="enable-background:new 0 0 33 42;" xml:space="preserve">
<g id="iPad_1_">
	<g>
		<rect style="fill:none;" width="33" height="42"/>
	</g>
	<g>
		<path style="fill:#FFFFFF;" d="M0.97,15.24c0-0.55,0.45-1,1-1s1,0.45,1,1s-0.45,1-1,1S0.97,15.79,0.97,15.24z M1.25,18.05h1.43V27
			H1.25V18.05z M9.8,15.02c2.27,0,3.83,1.59,3.83,3.88c0,2.24-1.6,3.83-3.85,3.83H6.77V27H5.28V15.02H9.8z M6.77,21.4h2.64
			c1.7,0,2.69-0.91,2.69-2.5c0-1.64-0.96-2.55-2.69-2.55H6.77V21.4z M14.73,24.49c0-1.6,1.18-2.52,3.26-2.65l2.58-0.16v-0.81
			c0-1.1-0.69-1.71-2.03-1.71c-1.07,0-1.82,0.41-2.02,1.11h-1.45c0.19-1.44,1.6-2.38,3.51-2.38c2.18,0,3.4,1.12,3.4,2.98V27h-1.36
			v-1.32H20.5c-0.58,0.95-1.56,1.48-2.76,1.48C16.01,27.16,14.73,26.13,14.73,24.49z M20.57,23.66v-0.82L18.16,23
			c-1.36,0.09-1.96,0.56-1.96,1.46c0,0.91,0.77,1.44,1.81,1.44C19.48,25.9,20.57,24.94,20.57,23.66z M23.88,22.53
			c0-2.81,1.49-4.63,3.76-4.63c1.24,0,2.3,0.59,2.8,1.57h0.12V14.5H32V27h-1.36v-1.43h-0.13c-0.56,1-1.63,1.59-2.86,1.59
			C25.35,27.16,23.88,25.34,23.88,22.53z M25.36,22.53c0,2.09,0.98,3.35,2.62,3.35c1.63,0,2.63-1.28,2.63-3.35
			c0-2.05-1.01-3.35-2.63-3.35C26.35,19.18,25.36,20.44,25.36,22.53z"/>
	</g>
</g>
</svg>
