<?xml version="1.0" encoding="utf-8"?>
<!-- Generator: Adobe Illustrator 20.1.0, SVG Export Plug-In . SVG Version: 6.00 Build 0)  -->
<svg version="1.1" id="Layer_1" xmlns="http://www.w3.org/2000/svg" xmlns:xlink="http://www.w3.org/1999/xlink" x="0px" y="0px"
	 width="78px" height="44px" viewBox="0 0 78 44" style="enable-background:new 0 0 78 44;" xml:space="preserve">
<g id="Desktop">
	<g id="Top_Nav">
		<g>
			<rect x="-0.2" style="fill:none;" width="78" height="44"/>
		</g>
		<g>
			<path style="fill:#FFFFFF;" d="M7.7,27v-8.7H2.4V27H1.2v-9.9h7.7V27H7.7z"/>
			<path style="fill:#FFFFFF;" d="M10.9,23.3c0-2.4,1.3-3.8,3.4-3.8s3.4,1.4,3.4,3.8s-1.3,3.8-3.4,3.8S10.9,25.7,10.9,23.3z
				 M16.5,23.3c0-1.8-0.8-2.8-2.2-2.8s-2.2,1-2.2,2.8c0,1.7,0.8,2.8,2.2,2.8S16.5,25.1,16.5,23.3z"/>
			<path style="fill:#FFFFFF;" d="M18.5,29v-3h0.6c0.5-0.4,0.8-1.3,0.9-2.3l0.3-4.1h5V26h1.2v2.9h-1.1V27h-5.8v2H18.5z M24.1,20.6
				h-2.8l-0.2,3.1c-0.1,0.9-0.3,1.7-0.6,2.1V26h3.6V20.6z"/>
			<path style="fill:#FFFFFF;" d="M27.4,29v-3H28c0.5-0.4,0.8-1.3,0.9-2.3l0.3-4.1h5V26h1.2v2.9h-1.1V27h-5.8v2H27.4z M33,20.6h-2.8
				L30,23.8c-0.1,0.9-0.3,1.7-0.6,2.1V26H33V20.6z"/>
			<path style="fill:#FFFFFF;" d="M42.8,25.1c-0.4,1.3-1.5,2-3.1,2c-2,0-3.3-1.5-3.3-3.8s1.3-3.8,3.3-3.8s3.2,1.4,3.2,3.7v0.5h-5.3
				l0,0c0.1,1.5,0.9,2.4,2.1,2.4c1,0,1.6-0.4,1.9-1C41.6,25.1,42.8,25.1,42.8,25.1z M37.6,22.7h4.1c0-1.3-0.8-2.2-2-2.2
				C38.5,20.5,37.7,21.4,37.6,22.7z"/>
			<path style="fill:#FFFFFF;" d="M51.4,23.3c0,2.3-1.2,3.8-3.1,3.8c-1,0-1.9-0.5-2.3-1.2h-0.1v3.6h-1.2v-9.8h1.1v1.2H46
				c0.5-0.9,1.3-1.4,2.4-1.4C50.2,19.5,51.4,21,51.4,23.3z M50.2,23.3c0-1.7-0.8-2.8-2.2-2.8c-1.3,0-2.2,1.1-2.2,2.8
				s0.8,2.8,2.2,2.8C49.4,26.1,50.2,25,50.2,23.3z"/>
			<path style="fill:#FFFFFF;" d="M52.2,27l3.2-3.9l-3.1-3.5h1.4l2.7,3.1h0.4v-3.1H58v3.1h0.4l2.7-3.1h1.4l-3.1,3.5l3.3,3.9H61
				l-2.7-3.4h-0.4V27h-1.2v-3.4h-0.4L53.7,27H52.2z"/>
			<path style="fill:#FFFFFF;" d="M65.2,23.6V27H64v-7.4h1.2v3.1h0.3l2.9-3.1h1.4l-3.4,3.5L70,27h-1.5l-2.9-3.4H65.2z"/>
			<path style="fill:#FFFFFF;" d="M70.8,24.9c0-1.3,1-2.1,2.7-2.2l2.1-0.1V22c0-0.9-0.6-1.4-1.7-1.4c-0.9,0-1.5,0.3-1.7,0.9H71
				c0.2-1.2,1.3-2,2.9-2c1.8,0,2.8,0.9,2.8,2.5v5h-1.1v-1.1h-0.1c-0.5,0.8-1.3,1.2-2.3,1.2C71.9,27.1,70.8,26.3,70.8,24.9z
				 M75.6,24.2v-0.7l-2,0.1c-1.1,0.1-1.6,0.5-1.6,1.2c0,0.8,0.6,1.2,1.5,1.2C74.7,26.1,75.6,25.3,75.6,24.2z"/>
		</g>
	</g>
</g>
</svg>
