<svg version="1.1" xmlns="http://www.w3.org/2000/svg" xmlns:xlink="http://www.w3.org/1999/xlink" x="0px" y="0px" width="74px" height="74px" viewBox="0 0 74 74" style="enable-background:new 0 0 74 74;" xml:space="preserve">
	<path style="fill:#999999;" d="M37,58.5c-11.85,0-21.5-9.65-21.5-21.5S25.15,15.5,37,15.5S58.5,25.15,58.5,37S48.85,58.5,37,58.5zM37,17.5c-10.75,0-19.5,8.75-19.5,19.5S26.25,56.5,37,56.5S56.5,47.75,56.5,37S47.75,17.5,37,17.5z"/>
	<path style="fill:#999999;" d="M31.54,38.34c0,2.87-1.54,4.72-3.86,4.72c-1.32,0-2.36-0.59-2.91-1.62h-0.04v4.58h-1.9v-12.3h1.84v1.54h0.04c0.53-0.99,1.65-1.63,2.94-1.63C30,33.62,31.54,35.47,31.54,38.34z M29.59,38.34c0-1.87-0.97-3.1-2.44-3.1c-1.45,0-2.43,1.26-2.43,3.1c0,1.86,0.98,3.11,2.43,3.11C28.63,41.45,29.59,40.23,29.59,38.34z"/>
	<path style="fill:#999999;" d="M33.12,46.36v-1.54c0.14,0.03,0.43,0.04,0.58,0.04c0.89,0,1.39-0.38,1.68-1.32l0.17-0.55l-3.34-9.27h2.06l2.35,7.52h0.03l2.35-7.52h2l-3.47,9.73c-0.79,2.24-1.71,2.96-3.62,2.96C33.75,46.41,33.27,46.39,33.12,46.36z"/>
	<path style="fill:#999999;" d="M42.71,40.54c-0.52-1.01-0.78-2.26-0.78-3.74c0-4.25,1.9-6.76,5.07-6.76c2.24,0,3.98,1.34,4.37,3.37H49.4c-0.31-1.04-1.26-1.71-2.42-1.71c-2,0-3.16,1.81-3.16,5h0.04c0.55-1.23,1.9-2.06,3.48-2.06c2.42,0,4.21,1.78,4.21,4.19c0,2.54-1.94,4.39-4.63,4.39C45.04,43.21,43.54,42.25,42.71,40.54z M49.59,38.88c0-1.54-1.12-2.65-2.67-2.65c-1.55,0-2.7,1.11-2.7,2.61s1.17,2.7,2.68,2.7C48.39,41.55,49.59,40.37,49.59,38.88z"/>
</svg>
