<svg version="1.1" xmlns="http://www.w3.org/2000/svg" xmlns:xlink="http://www.w3.org/1999/xlink" x="0px" y="0px" width="74px" height="74px" viewBox="0 0 74 74" style="enable-background:new 0 0 74 74;" xml:space="preserve">
	<path style="fill:#999999;" d="M51,55H23c-2.62,0-4-1.38-4-4V24c0-2.5,1.5-4,4-4h5.44c0.4-5.05,3.81-8.5,8.56-8.5s8.17,3.45,8.56,8.5H51c2.47,0,4,1.53,4,4v27C55,53.5,53.5,55,51,55z M23,22c-1.42,0-2,0.58-2,2v27c0,1.51,0.49,2,2,2h28c1.38,0,2-0.62,2-2V24c0-1.35-0.65-2-2-2H23z M30.45,20h13.11c-0.37-3.93-2.91-6.5-6.56-6.5S30.81,16.07,30.45,20z"/>
</svg>
