<?xml version="1.0" encoding="utf-8"?>
<!-- Generator: Adobe Illustrator 19.2.1, SVG Export Plug-In . SVG Version: 6.00 Build 0)  -->
<svg version="1.1" id="GLYPHS" xmlns="http://www.w3.org/2000/svg" xmlns:xlink="http://www.w3.org/1999/xlink" x="0px" y="0px"
	 width="14px" height="64px" viewBox="0 0 14 64" style="enable-background:new 0 0 14 64;" xml:space="preserve">
<g id="Suggested_Search">
	<g>
		<rect style="fill:none;" width="14" height="64"/>
	</g>
	<g>
		<path style="fill:#0070C9;" d="M5.5,51.83c-2.94,0-5.33-2.39-5.33-5.33s2.39-5.33,5.33-5.33s5.33,2.39,5.33,5.33
			S8.44,51.83,5.5,51.83z M5.5,42.33c-2.3,0-4.17,1.87-4.17,4.17s1.87,4.17,4.17,4.17s4.17-1.87,4.17-4.17S7.8,42.33,5.5,42.33z"/>
	</g>
	<g>
		
			<rect x="10.42" y="49.17" transform="matrix(0.7071 -0.7071 0.7071 0.7071 -33.5477 23.0086)" style="fill:#0070C9;" width="1.15" height="5.66"/>
	</g>
	<g>
		<path style="fill:#888888;" d="M5.5,19.83c-2.94,0-5.33-2.39-5.33-5.33S2.56,9.17,5.5,9.17s5.33,2.39,5.33,5.33
			S8.44,19.83,5.5,19.83z M5.5,10.33c-2.3,0-4.17,1.87-4.17,4.17s1.87,4.17,4.17,4.17s4.17-1.87,4.17-4.17S7.8,10.33,5.5,10.33z"/>
	</g>
	<g>
		
			<rect x="10.42" y="17.17" transform="matrix(0.7071 -0.7071 0.7071 0.7071 -10.9203 13.636)" style="fill:#888888;" width="1.15" height="5.66"/>
	</g>
</g>
</svg>
