<?xml version="1.0" encoding="utf-8"?>
<!-- Generator: Adobe Illustrator 19.2.1, SVG Export Plug-In . SVG Version: 6.00 Build 0)  -->
<svg version="1.1" id="GLYPHS" xmlns="http://www.w3.org/2000/svg" xmlns:xlink="http://www.w3.org/1999/xlink" x="0px" y="0px"
	 width="16px" height="84px" viewBox="0 0 16 84" style="enable-background:new 0 0 16 84;" xml:space="preserve">
<g id="Suggested_Search_2_">
	<g>
		<rect style="fill:none;" width="16" height="84"/>
	</g>
	<g>
		<path style="fill:#CCCCCC;" d="M6.5,25.65c-0.01,0-0.02,0-0.03,0c-3.39-0.02-6.14-2.79-6.12-6.18c0.02-3.38,2.77-6.12,6.15-6.12
			c0.01,0,0.02,0,0.03,0c3.39,0.02,6.14,2.79,6.12,6.18v0C12.63,22.91,9.88,25.65,6.5,25.65z M6.5,14.65
			c-2.66,0-4.84,2.16-4.85,4.83c-0.01,2.67,2.15,4.86,4.83,4.87c0.01,0,0.02,0,0.02,0c2.66,0,4.84-2.16,4.85-4.83
			c0.01-2.67-2.15-4.86-4.83-4.87C6.52,14.65,6.51,14.65,6.5,14.65z M12,19.53L12,19.53L12,19.53z"/>
	</g>
	<g>
		
			<rect x="12.1" y="22.57" transform="matrix(0.7071 -0.7071 0.7071 0.7071 -14.4736 16.5576)" style="fill:#CCCCCC;" width="1.3" height="6.36"/>
	</g>
	<g>
		<path style="fill:#66BBFF;" d="M6.5,67.65c-0.01,0-0.02,0-0.03,0c-3.39-0.02-6.14-2.79-6.12-6.18c0.02-3.38,2.77-6.12,6.15-6.12
			c0.01,0,0.02,0,0.03,0c3.39,0.02,6.14,2.79,6.12,6.18v0C12.63,64.91,9.88,67.65,6.5,67.65z M6.5,56.65
			c-2.66,0-4.84,2.16-4.85,4.83c-0.01,2.67,2.15,4.86,4.83,4.87c0.01,0,0.02,0,0.02,0c2.66,0,4.84-2.16,4.85-4.83
			c0.01-2.67-2.15-4.86-4.83-4.87C6.52,56.65,6.51,56.65,6.5,56.65z M12,61.53L12,61.53L12,61.53z"/>
	</g>
	<g>
		
			<rect x="12.1" y="64.57" transform="matrix(0.7071 -0.7071 0.7071 0.7071 -44.1721 28.8591)" style="fill:#66BBFF;" width="1.3" height="6.36"/>
	</g>
</g>
</svg>
