<?xml version="1.0" encoding="utf-8"?>
<!-- Generator: Adobe Illustrator 19.2.1, SVG Export Plug-In . SVG Version: 6.00 Build 0)  -->
<svg version="1.1" id="GLYPHS" xmlns="http://www.w3.org/2000/svg" xmlns:xlink="http://www.w3.org/1999/xlink" x="0px" y="0px"
	 width="53px" height="42px" viewBox="0 0 53 42" style="enable-background:new 0 0 53 42;" xml:space="preserve">
<g id="iPhone_1_">
	<g>
		<rect style="fill:none;" width="53" height="42"/>
	</g>
	<g>
		<path style="fill:#FFFFFF;" d="M1,15.24c0-0.55,0.45-1,1-1s1,0.45,1,1s-0.45,1-1,1S1,15.79,1,15.24z M1.28,18.05h1.43V27H1.28
			V18.05z M9.83,15.02c2.27,0,3.83,1.59,3.83,3.88c0,2.24-1.6,3.83-3.85,3.83H6.8V27H5.31V15.02H9.83z M6.8,21.4h2.64
			c1.7,0,2.69-0.91,2.69-2.5c0-1.64-0.96-2.55-2.69-2.55H6.8V21.4z M15.7,14.5h1.43v4.96h0.13c0.45-0.99,1.39-1.57,2.76-1.57
			c1.89,0,3.09,1.21,3.09,3.31V27h-1.43v-5.45c0-1.59-0.71-2.37-2.07-2.37c-1.6,0-2.48,1.01-2.48,2.52V27H15.7V14.5z M24.96,22.53
			c0-2.88,1.58-4.63,4.12-4.63c2.55,0,4.13,1.75,4.13,4.63c0,2.87-1.58,4.63-4.13,4.63C26.54,27.16,24.96,25.4,24.96,22.53z
			 M31.73,22.53c0-2.12-0.96-3.35-2.65-3.35s-2.65,1.22-2.65,3.35c0,2.12,0.95,3.35,2.65,3.35S31.73,24.64,31.73,22.53z
			 M35.15,18.05h1.36v1.41h0.13c0.45-0.99,1.32-1.57,2.69-1.57c2.01,0,3.13,1.19,3.13,3.31V27h-1.43v-5.45
			c0-1.61-0.68-2.37-2.11-2.37s-2.35,0.95-2.35,2.52V27h-1.43V18.05z M52.11,24.68c-0.43,1.54-1.81,2.47-3.77,2.47
			c-2.48,0-4.03-1.79-4.03-4.62c0-2.81,1.58-4.64,4.03-4.64c2.42,0,3.88,1.72,3.88,4.5v0.55H45.8v0.07
			c0.07,1.77,1.06,2.89,2.58,2.89c1.15,0,1.93-0.42,2.31-1.21H52.11z M45.8,21.79h4.93c-0.03-1.59-0.98-2.63-2.4-2.63
			C46.9,19.16,45.9,20.2,45.8,21.79z"/>
	</g>
</g>
</svg>
