<?xml version="1.0" encoding="utf-8"?>
<!-- Generator: Adobe Illustrator 19.2.1, SVG Export Plug-In . SVG Version: 6.00 Build 0)  -->
<svg version="1.1" id="GLYPHS" xmlns="http://www.w3.org/2000/svg" xmlns:xlink="http://www.w3.org/1999/xlink" x="0px" y="0px"
	 width="40px" height="44px" viewBox="0 0 40 44" style="enable-background:new 0 0 40 44;" xml:space="preserve">
<g id="Watch">
	<g>
		<path style="fill:#FFFFFF;" d="M4.1,27H2.93l-2.69-9.86h1.29l1.96,8.02h0.08l2.21-8.02h1.24l2.21,8.02h0.08l1.96-8.02h1.29
			L9.88,27H8.72l-2.27-7.79H6.37L4.1,27z"/>
	</g>
	<g>
		<path style="fill:#FFFFFF;" d="M13.03,24.94c0-1.32,0.97-2.08,2.69-2.18l2.13-0.13v-0.67c0-0.91-0.57-1.41-1.67-1.41
			c-0.88,0-1.5,0.33-1.66,0.92h-1.19c0.16-1.18,1.32-1.96,2.89-1.96c1.8,0,2.8,0.92,2.8,2.45V27h-1.12v-1.09h-0.11
			c-0.48,0.79-1.29,1.22-2.27,1.22C14.09,27.13,13.03,26.28,13.03,24.94z M17.84,24.25v-0.68l-1.98,0.13
			c-1.12,0.08-1.61,0.46-1.61,1.2c0,0.75,0.64,1.19,1.49,1.19C16.94,26.1,17.84,25.3,17.84,24.25z"/>
	</g>
	<g>
		<path style="fill:#FFFFFF;" d="M22.72,17.72v1.91h1.64v0.98h-1.64v4.17c0,0.87,0.33,1.24,1.09,1.24c0.21,0,0.33-0.01,0.55-0.03
			v0.99c-0.23,0.04-0.46,0.07-0.69,0.07c-1.52,0-2.13-0.56-2.13-1.97v-4.47h-1.19v-0.98h1.19v-1.91H22.72z"/>
	</g>
	<g>
		<path style="fill:#FFFFFF;" d="M30.8,21.89c-0.19-0.73-0.84-1.33-1.9-1.33c-1.33,0-2.16,1.06-2.16,2.73c0,1.7,0.85,2.78,2.16,2.78
			c0.99,0,1.68-0.46,1.9-1.29h1.19c-0.21,1.35-1.31,2.35-3.08,2.35c-2.06,0-3.38-1.5-3.38-3.84c0-2.3,1.31-3.79,3.38-3.79
			c1.79,0,2.88,1.07,3.09,2.39H30.8z"/>
	</g>
	<g>
		<path style="fill:#FFFFFF;" d="M33.66,16.71h1.18v4.09h0.11c0.37-0.81,1.14-1.29,2.27-1.29c1.56,0,2.54,1,2.54,2.73V27h-1.18
			v-4.48c0-1.31-0.59-1.96-1.7-1.96c-1.32,0-2.04,0.83-2.04,2.08V27h-1.18V16.71z"/>
	</g>
	<g>
		<rect y="0" style="fill:none;" width="40" height="44"/>
	</g>
</g>
</svg>
