<?xml version="1.0" encoding="utf-8"?>
<!-- Generator: Adobe Illustrator 19.2.1, SVG Export Plug-In . SVG Version: 6.00 Build 0)  -->
<svg version="1.1" id="GLYPHS" xmlns="http://www.w3.org/2000/svg" xmlns:xlink="http://www.w3.org/1999/xlink" x="0px" y="0px"
	 width="50px" height="42px" viewBox="0 0 50 42" style="enable-background:new 0 0 50 42;" xml:space="preserve">
<g id="Watch_1_">
	<g>
		<rect style="fill:none;" width="50" height="42"/>
	</g>
	<g>
		<path style="fill:#FFFFFF;" d="M5.42,27H4.01L0.75,15.02h1.56l2.38,9.74h0.1l2.68-9.74h1.51l2.68,9.74h0.1l2.38-9.74h1.56
			L12.44,27h-1.41l-2.76-9.45h-0.1L5.42,27z M16.13,24.49c0-1.6,1.18-2.52,3.26-2.65l2.58-0.16v-0.81c0-1.1-0.69-1.71-2.03-1.71
			c-1.07,0-1.82,0.41-2.02,1.11h-1.45c0.19-1.44,1.6-2.38,3.51-2.38c2.18,0,3.4,1.12,3.4,2.98V27h-1.36v-1.32h-0.13
			c-0.58,0.95-1.56,1.48-2.76,1.48C17.42,27.16,16.13,26.13,16.13,24.49z M21.97,23.66v-0.82L19.57,23
			c-1.36,0.09-1.96,0.56-1.96,1.46c0,0.91,0.77,1.44,1.81,1.44C20.89,25.9,21.97,24.94,21.97,23.66z M27.76,15.74v2.32h1.99v1.2
			h-1.99v5.06c0,1.05,0.4,1.5,1.33,1.5c0.26,0,0.4-0.01,0.66-0.03v1.2c-0.28,0.05-0.56,0.08-0.84,0.08c-1.84,0-2.58-0.68-2.58-2.39
			v-5.43h-1.44v-1.2h1.44v-2.32H27.76z M37.44,20.79c-0.23-0.89-1.02-1.61-2.31-1.61c-1.61,0-2.62,1.29-2.62,3.31
			c0,2.07,1.03,3.38,2.62,3.38c1.2,0,2.04-0.56,2.31-1.57h1.44c-0.26,1.64-1.59,2.86-3.74,2.86c-2.51,0-4.11-1.82-4.11-4.67
			c0-2.79,1.59-4.6,4.1-4.6c2.17,0,3.5,1.3,3.75,2.9H37.44z M40.77,14.5h1.43v4.96h0.13c0.45-0.99,1.39-1.57,2.76-1.57
			c1.89,0,3.09,1.21,3.09,3.31V27h-1.43v-5.45c0-1.59-0.71-2.37-2.07-2.37c-1.6,0-2.48,1.01-2.48,2.52V27h-1.43V14.5z"/>
	</g>
</g>
</svg>
